<svg width="230" height="239" viewBox="0 0 230 239" fill="none" xmlns="http://www.w3.org/2000/svg">
<path d="M172.387 25.9879C168.584 23.7187 166.839 25.6125 165.472 23.7187C164.105 21.8249 169.275 16.9054 158.915 11.986C158.915 11.986 158.224 1.39064 144.046 1.00967C129.868 0.628706 133.676 11.6105 129.873 14.2607C126.07 16.911 125.031 12.7479 121.228 15.3981C117.425 18.0483 119.145 23.3267 116.033 24.0997C112.921 24.8726 108.77 20.693 104.967 23.3432C101.164 25.9935 101.164 28.2627 99.4192 28.2627C97.674 28.2627 94.2292 26.7499 92.1562 28.2627C90.0832 29.7755 87.6622 31.6693 87.6622 31.6693H175.156C175.156 31.6693 176.19 28.2627 172.387 25.9879Z" stroke="#263238" stroke-linecap="round" stroke-linejoin="round"/>
<path d="M120.643 24.4309C120.147 24.737 119.631 25.0028 119.1 25.226" stroke="#263238" stroke-linecap="round" stroke-linejoin="round"/>
<path d="M139.355 6.76282C138.497 7.18193 137.744 7.81957 137.157 8.62252C136.57 9.42547 136.167 10.3704 135.981 11.3786C135.346 14.846 133.868 17.1539 132.183 17.3858C130.498 17.6176 124.164 16.922 123.104 19.4673C122.823 20.2112 122.624 20.9899 122.514 21.7862" stroke="#263238" stroke-linecap="round" stroke-linejoin="round"/>
<path d="M86.9964 53.1968C85.0041 52.0098 84.0963 52.9981 83.37 52.0098C82.6437 51.0215 85.3622 48.4375 79.9251 45.8535C79.9251 45.8535 79.562 40.2991 72.1325 40.1004C64.7031 39.9016 66.6904 45.6548 64.6981 47.0682C62.7058 48.4817 62.1762 46.2732 60.1587 47.6645C58.1412 49.0559 59.0743 51.8331 57.4402 52.2306C55.806 52.6281 53.6322 50.4417 51.6399 51.8331C49.6476 53.2244 49.6224 54.4115 48.7397 54.4115C47.8571 54.4115 46.0212 53.6165 44.9317 54.4115C43.8423 55.2066 42.5763 56.1949 42.5763 56.1949H88.4389C88.4389 56.1949 88.9836 54.3894 86.9964 53.1968Z" stroke="#263238" stroke-linecap="round" stroke-linejoin="round"/>
<path d="M59.8661 52.3852C59.6037 52.5419 59.3325 52.6802 59.0541 52.7993" stroke="#263238" stroke-linecap="round" stroke-linejoin="round"/>
<path d="M69.6762 43.115C69.2263 43.3342 68.8309 43.6681 68.5229 44.0888C68.2149 44.5096 68.0034 45.0048 67.9059 45.5333C67.573 47.3498 66.8013 48.5645 65.8884 48.6859C64.9755 48.8074 61.687 48.443 61.1322 49.7902C60.9859 50.1807 60.8809 50.5882 60.8195 51.0049" stroke="#263238" stroke-linecap="round" stroke-linejoin="round"/>
<path d="M146.306 94.7277C146.306 94.7277 170.077 97.3061 182.116 113.434C182.116 113.434 194.847 94.7498 217.71 95.1308C223.295 87.7537 226.85 78.7917 227.963 69.2882C229.076 59.7848 227.699 50.1309 223.994 41.4505C220.289 32.7701 214.408 25.4203 207.035 20.2569C199.663 15.0935 191.102 12.3288 182.349 12.2848C173.597 12.2409 165.013 14.9193 157.598 20.0084C150.182 25.0976 144.239 32.3879 140.462 41.0307C136.684 49.6735 135.227 59.3132 136.26 68.8274C137.292 78.3416 140.773 87.339 146.296 94.7719L146.306 94.7277Z" fill="#489C17"/>
<path opacity="0.5" d="M146.306 94.7277C146.306 94.7277 170.077 97.3061 182.116 113.434C182.116 113.434 194.847 94.7498 217.71 95.1308C223.295 87.7537 226.85 78.7917 227.963 69.2882C229.076 59.7848 227.699 50.1309 223.994 41.4505C220.289 32.7701 214.408 25.4203 207.035 20.2569C199.663 15.0935 191.102 12.3288 182.349 12.2848C173.597 12.2409 165.013 14.9193 157.598 20.0084C150.182 25.0976 144.239 32.3879 140.462 41.0307C136.684 49.6735 135.227 59.3132 136.26 68.8274C137.292 78.3416 140.773 87.339 146.296 94.7719L146.306 94.7277Z" fill="white"/>
<path d="M181.34 15.8508L180.533 214.782H184.547L181.34 15.8508Z" fill="#263238"/>
<path d="M182.54 108.52C182.54 108.52 190.564 92.7069 204.99 87.8758C204.99 87.8758 189.742 91.8291 182.121 105.445L182.54 108.52Z" fill="#263238"/>
<path d="M182.54 63.7203C182.54 63.7203 190.564 47.9128 204.99 43.0817C204.99 43.0817 189.742 47.035 182.121 60.6449L182.54 63.7203Z" fill="#263238"/>
<path d="M182.54 86.1201C182.54 86.1201 190.564 70.3071 204.99 65.476C204.99 65.476 189.742 69.4293 182.121 83.0447L182.54 86.1201Z" fill="#263238"/>
<path d="M181.35 75.1383C181.35 75.1383 173.607 59.3308 159.662 54.4997C159.662 54.4997 174.374 58.453 181.728 72.0684L181.35 75.1383Z" fill="#263238"/>
<path d="M181.35 97.0964C181.35 97.0964 173.607 81.2889 159.662 76.4578C159.662 76.4578 174.374 80.4111 181.728 94.0265L181.35 97.0964Z" fill="#263238"/>
<path d="M71.9159 115.35C71.9159 115.35 91.5864 117.486 101.578 130.842C101.578 130.842 112.119 115.383 131.054 115.687C135.681 109.577 138.627 102.154 139.55 94.2818C140.472 86.4099 139.333 78.413 136.265 71.2224C133.196 64.0318 128.325 57.9434 122.218 53.6659C116.111 49.3885 109.02 47.0982 101.77 47.0617C94.5204 47.0251 87.4102 49.2438 81.2676 53.4595C75.1249 57.6752 70.2027 63.7143 67.074 70.8736C63.9453 78.033 62.7388 86.018 63.5952 93.8989C64.4515 101.78 67.3353 109.232 71.9108 115.388L71.9159 115.35Z" fill="#489C17"/>
<path opacity="0.3" d="M71.9159 115.35C71.9159 115.35 91.5864 117.486 101.578 130.842C101.578 130.842 112.119 115.383 131.054 115.687C135.681 109.577 138.627 102.154 139.55 94.2818C140.472 86.4099 139.333 78.413 136.265 71.2224C133.196 64.0318 128.325 57.9434 122.218 53.6659C116.111 49.3885 109.02 47.0982 101.77 47.0617C94.5204 47.0251 87.4102 49.2438 81.2676 53.4595C75.1249 57.6752 70.2027 63.7143 67.074 70.8736C63.9453 78.033 62.7388 86.018 63.5952 93.8989C64.4515 101.78 67.3353 109.232 71.9108 115.388L71.9159 115.35Z" fill="white"/>
<path d="M100.927 50.022L100.267 214.782H103.585L100.927 50.022Z" fill="#263238"/>
<path d="M101.926 126.773C101.926 126.773 108.569 113.677 120.532 109.657C120.532 109.657 107.923 112.931 101.593 124.206L101.926 126.773Z" fill="#263238"/>
<path d="M101.926 89.6703C101.926 89.6703 108.569 76.5738 120.532 72.5543C120.532 72.5543 107.923 75.8284 101.593 87.1084L101.926 89.6703Z" fill="#263238"/>
<path d="M101.926 108.222C101.926 108.222 108.569 95.1253 120.532 91.1058C120.532 91.1058 107.923 94.3799 101.593 105.66L101.926 108.222Z" fill="#263238"/>
<path d="M100.942 99.1282C100.942 99.1282 94.5269 86.0318 82.9868 82.0123C82.9868 82.0123 95.1674 85.2864 101.26 96.5664L100.942 99.1282Z" fill="#263238"/>
<path d="M100.942 117.315C100.942 117.315 94.5269 104.219 82.9868 100.199C82.9868 100.199 95.1674 103.473 101.26 114.753L100.942 117.315Z" fill="#263238"/>
<path d="M118.303 214.595C118.232 212.867 118.439 209.587 120.139 204.656C122.802 196.927 127.467 212.386 127.467 212.386C127.467 212.386 127.467 210.548 132.466 204.656C137.464 198.765 141.792 209.073 141.792 209.073C141.792 209.073 139.461 184.415 145.125 186.254C150.79 188.093 150.119 209.073 150.119 209.073C150.119 209.073 154.118 193.614 159.45 193.614C164.781 193.614 166.112 204.656 166.112 204.656C166.112 204.656 167.444 185.15 172.775 184.78C178.106 184.41 184.098 200.979 184.098 200.979C184.098 200.979 182.434 178.894 187.765 177.79C193.096 176.686 195.094 185.884 195.094 185.884C195.094 185.884 199.754 155.335 208.752 159.018C217.75 162.7 210.084 196.562 210.084 196.562C210.084 196.562 219.077 173.003 226.405 178.524C233.068 183.543 224.589 209.852 222.996 214.595H118.303Z" fill="#489C17"/>
<path d="M225.835 214.545C225.835 214.545 229.739 201.344 227.737 199.135C225.734 196.927 217.094 206.501 217.094 206.501C217.094 206.501 223.424 182.941 213.428 179.998C203.431 177.056 201.772 202.818 201.772 202.818C201.772 202.818 194.443 191.041 192.774 195.458C191.768 198.15 191.204 201.015 191.109 203.922C191.109 203.922 187.447 171.899 179.115 173.373C170.783 174.847 178.449 206.501 178.449 206.501C178.449 206.501 173.789 195.458 168.458 196.562C163.127 197.666 161.109 204.656 161.109 204.656C161.109 204.656 158.779 198.401 157.109 198.401C155.44 198.401 153.448 209.443 153.448 209.443C153.448 209.443 151.43 192.51 147.784 193.249C144.137 193.989 136.455 208.339 136.455 208.339C136.455 208.339 137.792 200.239 133.792 199.875C129.793 199.511 127.462 212.386 127.462 212.386C127.462 212.386 122.131 200.239 118.802 202.448C115.473 204.656 117.062 214.915 117.062 214.915" stroke="#263238" stroke-linecap="round" stroke-linejoin="round"/>
<path d="M207.849 214.363L210.749 198.771" stroke="#263238" stroke-linecap="round" stroke-linejoin="round"/>
<path d="M187.099 214.595L185.43 204.292" stroke="#263238" stroke-linecap="round" stroke-linejoin="round"/>
<path d="M144.969 214.545L147.123 206.131" stroke="#263238" stroke-linecap="round" stroke-linejoin="round"/>
<path d="M170.773 214.965L167.111 207.605" stroke="#263238" stroke-linecap="round" stroke-linejoin="round"/>
<path d="M208.419 208.339L205.751 202.448" stroke="#263238" stroke-linecap="round" stroke-linejoin="round"/>
<path d="M187.099 211.282L189.43 206.131" stroke="#263238" stroke-linecap="round" stroke-linejoin="round"/>
<path d="M169.108 210.918L170.773 207.605" stroke="#263238" stroke-linecap="round" stroke-linejoin="round"/>
<path d="M145.64 211.42L144.46 206.865" stroke="#263238" stroke-linecap="round" stroke-linejoin="round"/>
<path d="M103.106 214.678C103.162 213.336 103.005 210.813 101.759 206.948C99.8075 200.946 96.3828 212.949 96.3828 212.949C96.3828 212.949 96.3828 211.519 92.7211 206.948C89.0593 202.376 85.8818 210.376 85.8818 210.376C85.8818 210.376 87.5916 191.234 83.4356 192.664C79.2795 194.094 79.7738 210.376 79.7738 210.376C79.7738 210.376 76.8787 198.395 72.9446 198.395C69.0105 198.395 68.0572 206.964 68.0572 206.964C68.0572 206.964 67.0838 191.819 63.1749 191.538C59.266 191.256 54.8679 204.104 54.8679 204.104C54.8679 204.104 56.0885 186.988 52.1796 186.105C48.2707 185.222 46.803 192.394 46.803 192.394C46.803 192.394 43.3833 168.68 36.7861 171.534C30.1889 174.389 35.8076 200.681 35.8076 200.681C35.8076 200.681 29.2104 182.395 23.8389 186.679C18.9515 190.577 25.1704 210.973 26.3607 214.678H103.106Z" fill="#489C17"/>
<path d="M24.2576 214.639C24.2576 214.639 21.3978 204.391 22.8605 202.68C24.3231 200.968 30.6782 208.394 30.6782 208.394C30.6782 208.394 26.038 190.108 33.3665 187.822C40.6951 185.536 41.9409 205.534 41.9409 205.534C41.9409 205.534 47.3175 196.391 48.5381 199.82C49.2771 201.92 49.6897 204.141 49.7587 206.39C49.7587 206.39 52.447 181.544 58.5549 182.676C64.6629 183.808 59.0593 208.394 59.0593 208.394C59.0593 208.394 62.4789 199.82 66.3878 200.664C70.2967 201.509 71.7644 206.948 71.7644 206.948C71.7644 206.948 73.4743 202.089 74.6948 202.089C75.9154 202.089 77.3832 210.664 77.3832 210.664C77.3832 210.664 78.8509 197.517 81.5392 198.092C84.2275 198.666 89.8462 209.802 89.8462 209.802C89.8462 209.802 88.8677 203.519 91.7981 203.232C94.7285 202.945 96.4384 212.949 96.4384 212.949C96.4384 212.949 100.347 203.519 102.793 205.22C105.24 206.92 104.034 214.915 104.034 214.915" stroke="#263238" stroke-linecap="round" stroke-linejoin="round"/>
<path d="M37.4468 214.495L35.3184 202.393" stroke="#263238" stroke-linecap="round" stroke-linejoin="round"/>
<path d="M52.6688 214.677L53.8894 206.677" stroke="#263238" stroke-linecap="round" stroke-linejoin="round"/>
<path d="M83.5668 214.639L81.983 208.107" stroke="#263238" stroke-linecap="round" stroke-linejoin="round"/>
<path d="M64.6376 214.965L67.3259 209.25" stroke="#263238" stroke-linecap="round" stroke-linejoin="round"/>
<path d="M37.0333 209.819L38.9852 205.247" stroke="#263238" stroke-linecap="round" stroke-linejoin="round"/>
<path d="M52.6688 212.105L50.959 208.107" stroke="#263238" stroke-linecap="round" stroke-linejoin="round"/>
<path d="M65.8582 211.823L64.6376 209.25" stroke="#263238" stroke-linecap="round" stroke-linejoin="round"/>
<path d="M83.0725 212.21L83.94 208.676" stroke="#263238" stroke-linecap="round" stroke-linejoin="round"/>
<path d="M178.903 168.857L176.442 172.904L156.217 182.527C156.217 182.527 153.402 183.107 153.402 184.068C153.402 185.028 152.873 187.728 153.402 188.115C153.932 188.501 157.437 187.149 157.437 187.149C157.437 187.149 156.383 188.496 157.437 188.882C158.491 189.269 159.545 187.535 159.545 187.535C160.578 186.823 161.577 186.053 162.536 185.227C163.032 184.514 163.445 183.737 163.767 182.914L182.429 177.718L186.297 171.363C186.297 171.363 178.379 170.397 178.903 168.857Z" fill="#B5B5B5" stroke="#263238" stroke-linecap="round" stroke-linejoin="round"/>
<path d="M180.31 159.78L178.021 168.006L184.008 171.91L186.423 165.494L180.31 159.78Z" fill="white" stroke="#263238" stroke-linecap="round" stroke-linejoin="round"/>
<path d="M178.258 165.356L185.521 170.099L184.245 172.605L177.37 168.702C177.418 167.525 177.722 166.378 178.258 165.356Z" fill="white" stroke="#263238" stroke-linecap="round" stroke-linejoin="round"/>
<path d="M163.883 208.842C163.883 208.842 158.789 211.63 157.387 212.883C155.985 214.137 155.732 213.987 156.111 214.976H172.417L172.034 208.56L163.883 208.842Z" fill="white" stroke="#263238" stroke-linecap="round" stroke-linejoin="round"/>
<path d="M172.357 214.015H156.111C155.889 214.275 155.914 214.484 156.111 214.992H172.417L172.357 214.015Z" fill="white" stroke="#263238" stroke-linecap="round" stroke-linejoin="round"/>
<path d="M185.788 175.675C185.788 175.675 179.549 172.887 174.455 172.329C169.361 171.772 158.789 172.048 158.279 174.538C157.77 177.028 165.795 204.353 165.795 204.353C165.795 204.353 164.392 205.33 164.282 206.009C164.171 206.688 163.903 208.77 163.903 208.77L172.054 210.161C172.054 210.161 172.306 207.373 172.306 204.728C172.306 202.084 169.507 185.763 169.507 185.763L185.934 191.483L179.821 205.7C179.821 205.7 177.915 209.885 180.078 211.978C182.242 214.07 185.808 213.634 185.808 213.634L214.85 214.054L214.346 208.891C214.346 208.891 210.144 208.196 209.378 208.196C208.611 208.196 193.964 204.154 193.964 204.154C193.964 204.154 205.685 190.765 206.957 188.534C207.713 187.299 208.228 185.907 208.469 184.443C208.71 182.98 208.673 181.478 208.359 180.032C207.592 176.686 207.083 175.984 207.083 175.984C207.083 175.984 198.145 180.683 193.56 179.579C190.752 178.876 188.106 177.547 185.788 175.675Z" fill="#263238" stroke="#263238" stroke-linecap="round" stroke-linejoin="round"/>
<path d="M165.028 132.869C165.028 132.869 165.921 136.077 165.921 136.496C165.921 136.916 165.28 139.003 165.795 139.699C166.309 140.394 167.812 140.538 167.812 140.538C167.812 140.538 170.102 143.464 171.121 144.58C172.14 145.695 173.285 146.114 174.561 145.419C175.837 144.723 176.982 142.907 176.982 142.907L179.403 145.557L185.006 138.445L182.989 135.657C182.989 135.657 183.493 132.449 181.587 128.27C179.68 124.09 173.053 122.969 168.72 123.808C164.387 124.648 163.374 127.43 163.374 127.988C163.374 128.546 165.028 132.869 165.028 132.869Z" fill="white" stroke="#263238" stroke-linecap="round" stroke-linejoin="round"/>
<path d="M167.323 120.181C167.323 120.181 164.645 117.972 162.864 118.928C161.084 119.883 161.855 120.739 161.588 122.412C161.321 124.085 156.877 124.223 156.877 127.011C156.877 129.799 160.06 130.776 160.695 130.914C161.331 131.052 160.827 134.122 162.713 134.122C164.599 134.122 165.008 132.869 165.008 132.869C165.008 132.869 163.606 128.408 165.134 127.712C166.662 127.016 170.102 125.619 169.593 128.264C169.083 130.909 170.869 131.748 171.887 131.472C172.906 131.196 174.177 131.328 174.409 131.886C174.641 132.444 175.922 133.421 175.922 132.03C175.922 130.638 176.558 129.379 177.703 129.379C178.848 129.379 179.72 131.472 179.614 133.145C179.528 134.152 179.178 135.111 178.606 135.906L182.938 135.624C182.938 135.624 184.083 129.352 183.064 124.891C182.046 120.429 177.249 117.95 174.324 117.531C171.398 117.111 167.701 118.928 167.323 120.181Z" fill="#263238" stroke="#263238" stroke-linecap="round" stroke-linejoin="round"/>
<path d="M168.417 135.359C168.735 135.911 168.811 136.463 168.594 136.601C168.377 136.739 167.933 136.463 167.62 135.933C167.308 135.403 167.222 134.829 167.444 134.691C167.666 134.553 168.1 134.857 168.417 135.359Z" fill="#263238"/>
<path d="M170.072 141.62C170.68 141.488 171.232 141.138 171.641 140.627C172.049 140.116 172.292 139.471 172.331 138.793" stroke="#263238" stroke-linecap="round" stroke-linejoin="round"/>
<path d="M166.193 134.194C166.193 134.194 166.405 132.896 167.807 133.487" stroke="#263238" stroke-linecap="round" stroke-linejoin="round"/>
<path d="M179.675 147.925C179.675 147.925 178.666 157.129 179.801 159.918C180.936 162.706 185.026 173.859 185.026 173.859C185.026 173.859 184.134 180.683 186.681 182.505C189.228 184.327 198.907 184.598 202.604 182.086C206.301 179.573 207.824 177.624 207.824 175.813C207.824 174.002 205.403 166.052 201.585 158.107C198.789 152.288 194.93 147.161 190.247 143.045C187.573 140.676 186.555 139.561 186.045 139.561C185.536 139.561 179.423 145.281 179.675 147.925Z" fill="white" stroke="#263238" stroke-linecap="round" stroke-linejoin="round"/>
<path d="M185.026 137.75L178.147 146.252L179.549 150.857L187.316 139.842L185.026 137.75Z" fill="white" stroke="#263238" stroke-linecap="round" stroke-linejoin="round"/>
<path d="M185.152 168.84C185.152 168.84 171.141 177.624 169.361 178.326C167.58 179.027 161.845 179.021 160.186 178.878C159.983 178.838 159.773 178.848 159.574 178.906C159.374 178.965 159.189 179.071 159.031 179.217C158.873 179.363 158.746 179.546 158.66 179.751C158.574 179.957 158.53 180.181 158.532 180.407L158.279 185.708C158.279 185.708 159.677 186.127 160.297 185.708C160.917 185.288 161.568 183.753 161.568 183.753C161.568 183.753 163.863 184.035 164.624 183.477C165.124 183.105 165.594 182.685 166.027 182.224C168.38 182.01 170.719 181.641 173.032 181.119C175.579 180.418 187.296 176.239 189.082 175.819C190.867 175.399 191.503 174.284 191.629 173.61C191.755 172.937 185.152 168.84 185.152 168.84Z" fill="white" stroke="#263238" stroke-linecap="round" stroke-linejoin="round"/>
<path d="M169.179 178.381C167.232 179.016 161.795 179.016 160.186 178.883C159.983 178.843 159.773 178.853 159.574 178.912C159.374 178.971 159.189 179.077 159.031 179.223C158.873 179.369 158.746 179.551 158.66 179.757C158.574 179.962 158.53 180.186 158.532 180.413L158.279 185.713C158.279 185.713 159.677 186.133 160.297 185.713C160.917 185.293 161.568 183.758 161.568 183.758C161.568 183.758 163.863 184.04 164.624 183.482C165.124 183.11 165.594 182.691 166.027 182.229C166.027 182.229 168.165 182.025 170.329 181.677L169.179 178.381Z" fill="#489C17" stroke="#263238" stroke-linecap="round" stroke-linejoin="round"/>
<path d="M186.171 148.069C186.171 148.069 184.008 150.714 184.26 152.668C184.512 154.623 185.152 168.84 185.152 168.84L192.41 172.048L194.428 160.757C194.428 160.757 196.087 157.825 195.83 155.037" fill="white"/>
<path d="M186.171 148.069C186.171 148.069 184.008 150.714 184.26 152.668C184.512 154.623 185.152 168.84 185.152 168.84L192.41 172.048L194.428 160.757C194.428 160.757 196.087 157.825 195.83 155.037" stroke="#263238" stroke-linecap="round" stroke-linejoin="round"/>
<path d="M184.517 169.541L191.901 174.416C191.901 174.416 192.91 174.416 193.051 172.605C193.192 170.794 193.939 170.513 193.303 169.541C192.668 168.569 185.914 165.494 185.279 165.494C184.643 165.494 184.008 167.167 184.517 169.541Z" fill="white" stroke="#263238" stroke-linecap="round" stroke-linejoin="round"/>
<path d="M214.32 208.996C214.32 208.996 218.138 205.374 218.779 205.512C219.42 205.65 224.509 210.951 224.509 210.951C224.509 210.951 229.22 213.739 229.22 214.159C229.22 214.578 228.458 214.711 228.458 214.711L214.84 214.159L214.32 208.996Z" fill="white" stroke="#263238" stroke-linecap="round" stroke-linejoin="round"/>
<path d="M229.199 214.159C229.199 213.739 224.488 210.951 224.488 210.951C224.488 210.951 219.394 205.65 218.759 205.512C218.532 205.463 217.896 205.893 217.18 206.468L223.344 211.227L227.832 214.689L228.438 214.716C228.438 214.716 229.199 214.573 229.199 214.159Z" fill="white" stroke="#263238" stroke-linecap="round" stroke-linejoin="round"/>
<path d="M185.914 191.571L184.643 185.713" stroke="#999999" stroke-linecap="round" stroke-linejoin="round"/>
<path d="M141.6 168.36C140.087 167.421 137.862 166.151 137.862 166.151C137.862 166.151 134.866 157.869 132.516 154.004C130.166 150.139 128.774 149.67 126.206 149.438C123.639 149.206 115.947 151.426 115.615 152.011C115.615 152.011 108.452 155.639 106.637 158.217C104.821 160.795 105.456 180.799 105.456 180.799C105.456 180.799 97.7698 186.497 95.7422 192.83C94.451 196.844 95.954 203.475 102.904 205.468C105.223 206.147 107.657 206.206 110.001 205.639C111.806 207.307 113.806 208.705 115.947 209.797C123.109 213.54 127.81 214.241 132.193 214.479C136.576 214.716 141.065 213.192 141.923 212.27C142.78 211.348 144.49 207.704 140.107 202.442C136.329 197.898 124.93 192.841 121.854 191.532C122.16 189.567 122.328 187.579 122.358 185.586C122.358 185.586 128.985 177.304 129.419 175.405C129.853 173.505 130.932 165.809 130.932 165.809C130.932 165.809 134.569 173.069 135.638 174.118C136.707 175.167 142.906 174.356 143.547 174.356C144.187 174.356 144.51 171.313 144.51 171.313C143.697 170.158 142.714 169.16 141.6 168.36Z" fill="white" stroke="#263238" stroke-linecap="round" stroke-linejoin="round"/>
<path d="M140.107 202.415C136.329 197.871 124.93 192.813 121.854 191.505C121.949 190.892 122.03 190.296 122.091 189.733C119.214 190.428 116.228 190.362 113.38 189.539C105.255 187.198 103.545 182.4 103.545 182.4H103.484C101.058 184.554 97.1091 188.545 95.7422 192.813C94.451 196.827 95.954 203.458 102.904 205.452C105.223 206.131 107.657 206.19 110.001 205.623C111.806 207.29 113.806 208.688 115.947 209.78C123.109 213.524 127.81 214.225 132.193 214.462C136.576 214.7 141.065 213.176 141.923 212.254C142.78 211.332 144.49 207.677 140.107 202.415Z" fill="#696969" stroke="#263238" stroke-linecap="round" stroke-linejoin="round"/>
<path d="M100.014 193.636C100.014 193.636 103.863 188.485 108.891 190.594C126.459 197.965 130.912 206.158 132.092 209.432C133.273 212.707 132.839 214.468 131.881 215.169C130.922 215.87 120.87 213.297 116.058 211.426C111.247 209.554 104.831 210.487 99.3788 205.457C93.9265 200.427 94.784 195.519 96.4938 191.295" fill="#696969"/>
<path d="M100.014 193.636C100.014 193.636 103.863 188.485 108.891 190.594C126.459 197.965 130.912 206.158 132.092 209.432C133.273 212.707 132.839 214.468 131.881 215.169C130.922 215.87 120.87 213.297 116.058 211.426C111.247 209.554 104.831 210.487 99.3788 205.457C93.9265 200.427 94.784 195.519 96.4938 191.295" stroke="#263238" stroke-linecap="round" stroke-linejoin="round"/>
<path d="M144.49 171.297C143.681 170.153 142.705 169.164 141.6 168.371C140.087 167.432 137.862 166.162 137.862 166.162C137.862 166.162 137 163.777 135.845 160.967C134.549 162.148 132.425 164.417 131.608 167.173C132.718 169.326 134.846 173.356 135.643 174.118C136.707 175.173 142.911 174.356 143.552 174.356C144.192 174.356 144.49 171.297 144.49 171.297Z" fill="white" stroke="#263238" stroke-linecap="round" stroke-linejoin="round"/>
<path d="M130.912 165.781L130.806 159.465" stroke="#263238" stroke-linecap="round" stroke-linejoin="round"/>
<path d="M147.96 181.671C146.759 182.143 145.606 182.75 144.52 183.482C143.511 184.316 143.375 185.017 143.375 186.271C143.375 187.524 141.08 189.197 142.23 189.197C143.38 189.197 144.248 188.777 145.287 186.69C146.326 184.603 147.577 183.985 147.577 183.985C147.656 184.994 147.825 185.993 148.081 186.966C148.437 187.798 148.484 188.748 148.212 189.617C147.955 190.721 149.221 190.456 149.609 187.408C149.815 185.463 149.552 183.493 148.848 181.694L147.96 181.671Z" fill="white" stroke="#263238" stroke-linecap="round" stroke-linejoin="round"/>
<path d="M147.708 178.314C147.708 178.314 148.086 180.667 147.96 181.202C147.834 181.738 146.048 183.234 145.413 184.515C145.159 185.036 145.005 185.609 144.962 186.198C144.919 186.787 144.986 187.379 145.161 187.938C145.413 188.794 146.169 191.571 146.558 190.826C146.946 190.08 147.062 189.219 147.062 187.618C147.062 186.017 146.81 184.62 147.567 183.979L148.333 183.339C148.703 184.273 149.002 185.239 149.226 186.226C149.73 188.258 148.843 189.97 149.095 190.29C149.347 190.61 150.371 190.395 150.497 189.539C150.623 188.683 151.133 187.723 151.133 186.011C151.125 184.967 150.839 183.948 150.31 183.079C150.072 182.359 149.88 181.621 149.735 180.871C149.508 179.579 148.727 177.138 147.708 178.314Z" fill="white" stroke="#263238" stroke-linecap="round" stroke-linejoin="round"/>
<path d="M151.652 174.56C152.205 175.584 152.71 176.638 153.165 177.718C153.483 178.657 153.7 179.711 153.165 179.927C152.63 180.142 152.202 178.524 151.879 177.823C151.556 177.122 150.477 174.091 151.652 174.56Z" fill="#489C17" stroke="#263238" stroke-linecap="round" stroke-linejoin="round"/>
<path d="M151.652 174.56C151.011 173.042 147.375 170.695 146.412 170.115C145.741 169.701 143.597 169.641 142.377 169.635C142.084 169.585 141.786 169.585 141.494 169.635C141.494 169.635 139.784 171.037 139.89 172.561C139.93 172.996 140.1 173.404 140.373 173.721C140.647 174.039 141.009 174.249 141.403 174.317H141.907C141.826 174.885 141.916 175.467 142.165 175.973C143.017 177.415 143.537 179.061 143.678 180.771C143.678 182.295 145.282 181.71 145.494 180.54C145.705 179.369 145.176 177.265 145.176 176.796C145.176 176.327 146.028 175.04 146.028 175.04C146.028 175.04 148.384 177.729 148.701 178.314C149.019 178.9 149.13 181.942 149.988 182.179C150.845 182.417 150.84 180.523 150.84 180.523C151.017 180.539 151.195 180.515 151.363 180.451C151.532 180.388 151.686 180.288 151.817 180.156C151.948 180.024 152.052 179.864 152.123 179.686C152.195 179.508 152.232 179.315 152.232 179.121C152.409 177.571 152.209 175.998 151.652 174.56Z" fill="#489C17" stroke="#263238" stroke-linecap="round" stroke-linejoin="round"/>
<path d="M149.302 174.913C149.302 174.913 150.901 175.962 150.901 177.017C150.901 178.072 150.795 180.529 150.795 180.529" stroke="#263238" stroke-linecap="round" stroke-linejoin="round"/>
<path d="M132.41 212.154C132.41 213.811 133.263 214.026 129.949 216.251C126.635 218.476 121.612 216.952 116.694 215.782C111.776 214.611 105.895 213.673 103.651 213.673C101.406 213.673 96.0448 214.584 94.0274 214.584C92.0099 214.584 88.686 214.352 89.1148 213.181C89.5435 212.011 94.9907 210.134 95.4194 209.67C95.8481 209.206 95.7422 208.262 96.8115 206.506C97.0534 206.025 97.4449 205.654 97.915 205.462C98.3851 205.269 98.9026 205.268 99.3737 205.457C101.262 207.351 103.608 208.61 106.132 209.085C110.167 209.786 117.566 210.134 120.456 210.134C123.347 210.134 126.978 211.542 127.296 211.542" fill="#696969"/>
<path d="M132.41 212.154C132.41 213.811 133.263 214.026 129.949 216.251C126.635 218.476 121.612 216.952 116.694 215.782C111.776 214.611 105.895 213.673 103.651 213.673C101.406 213.673 96.0448 214.584 94.0274 214.584C92.0099 214.584 88.686 214.352 89.1148 213.181C89.5435 212.011 94.9907 210.134 95.4194 209.67C95.8481 209.206 95.7422 208.262 96.8115 206.506C97.0534 206.025 97.4449 205.654 97.915 205.462C98.3851 205.269 98.9026 205.268 99.3737 205.457C101.262 207.351 103.608 208.61 106.132 209.085C110.167 209.786 117.566 210.134 120.456 210.134C123.347 210.134 126.978 211.542 127.296 211.542" stroke="#263238" stroke-linecap="round" stroke-linejoin="round"/>
<path d="M106.132 209.085C103.615 208.606 101.277 207.347 99.3939 205.457C98.9228 205.268 98.4052 205.269 97.9351 205.462C97.465 205.654 97.0735 206.025 96.8317 206.506C95.7624 208.262 95.8683 209.201 95.4396 209.67C95.0109 210.139 89.5586 212.011 89.1349 213.181C88.7113 214.352 92.0098 214.584 94.0273 214.584C96.0448 214.584 101.406 213.645 103.651 213.645C104.817 213.681 105.98 213.786 107.136 213.96C107.136 213.855 107.096 213.75 107.07 213.645C106.758 212.188 107.655 210.283 108.155 209.377C107.413 209.289 106.722 209.189 106.132 209.085Z" fill="white" stroke="#263238" stroke-linecap="round" stroke-linejoin="round"/>
<path d="M99.3738 205.457C98.9027 205.268 98.3851 205.269 97.915 205.462C97.4449 205.654 97.0534 206.025 96.8115 206.506C95.7423 208.262 95.8482 209.201 95.4195 209.67C94.9907 210.139 89.5385 212.011 89.1148 213.181C88.9584 213.595 89.2813 213.888 89.8461 214.098C91.102 212.624 95.0916 211.398 96.2063 210.509C97.321 209.62 96.4887 209.316 97.6639 207.561C97.9566 207.151 98.321 206.809 98.7358 206.555C99.1506 206.3 99.6075 206.139 100.08 206.081C99.6158 205.717 99.3738 205.457 99.3738 205.457Z" stroke="#263238" stroke-linecap="round" stroke-linejoin="round"/>
<path d="M109.209 155.837C109.209 155.837 104.826 157.709 103.974 161.568C103.121 165.428 104.72 189.423 104.72 190.009C104.72 190.594 107.605 191.179 112.099 191.665C116.593 192.151 124.925 192.25 124.925 192.25C124.925 192.25 128.562 194 129.308 194C130.055 194 131.659 192.951 131.659 192.951C131.659 192.951 131.447 194 132.299 193.769C133.152 193.537 136.042 190.958 136.042 190.494C136.042 190.031 134.12 187.8 132.945 187.568C131.77 187.336 126.529 189.556 125.995 189.556C125.46 189.556 116.159 187.347 114.449 186.514C113.09 185.91 111.697 185.401 110.278 184.99L111.03 164.749" fill="white"/>
<path d="M109.209 155.837C109.209 155.837 104.826 157.709 103.974 161.568C103.121 165.428 104.72 189.423 104.72 190.009C104.72 190.594 107.605 191.179 112.099 191.665C116.593 192.151 124.925 192.25 124.925 192.25C124.925 192.25 128.562 194 129.308 194C130.055 194 131.659 192.951 131.659 192.951C131.659 192.951 131.447 194 132.299 193.769C133.152 193.537 136.042 190.958 136.042 190.494C136.042 190.031 134.12 187.8 132.945 187.568C131.77 187.336 126.529 189.556 125.995 189.556C125.46 189.556 116.159 187.347 114.449 186.514C113.09 185.91 111.697 185.401 110.278 184.99L111.03 164.749" stroke="#263238" stroke-linecap="round" stroke-linejoin="round"/>
<path d="M132.945 187.552C131.765 187.314 126.529 189.539 125.995 189.539C125.46 189.539 116.159 187.331 114.449 186.497C113.09 185.893 111.697 185.384 110.278 184.973L110.687 173.881L103.883 173.594C104.17 181.263 104.72 189.666 104.72 190.009C104.72 190.594 107.605 191.179 112.099 191.665C116.593 192.151 124.925 192.25 124.925 192.25C124.925 192.25 128.562 194 129.308 194C130.055 194 131.659 192.951 131.659 192.951C131.659 192.951 131.447 194.001 132.299 193.769C133.152 193.537 136.042 190.958 136.042 190.494C136.042 190.031 134.12 187.784 132.945 187.552Z" fill="white" stroke="#263238" stroke-linecap="round" stroke-linejoin="round"/>
<path d="M136.042 190.478C136.042 190.009 134.12 187.783 132.945 187.552C131.77 187.32 126.529 189.539 125.995 189.539C125.828 189.539 124.809 189.324 123.432 188.987C122.928 189.539 122.449 190.489 122.61 192.167L124.925 192.217C124.925 192.217 128.562 193.967 129.308 193.967C130.055 193.967 131.659 192.918 131.659 192.918C131.659 192.918 131.447 193.967 132.299 193.735C133.152 193.504 136.042 190.942 136.042 190.478Z" fill="#489C17" stroke="#263238" stroke-linecap="round" stroke-linejoin="round"/>
<path d="M112.74 132.896C112.74 132.896 108.674 129.39 107.071 130.561C105.467 131.731 98.7333 141.09 98.0927 143.663C97.4522 146.236 100.978 146.827 99.6966 148.93C98.4155 151.034 95.9542 151.857 96.9175 154.452C97.8809 157.047 101.729 157.262 102.582 157.847C103.434 158.432 104.826 160.657 107.928 159.719C111.03 158.78 110.384 154.452 112.74 153.866C115.095 153.281 114.878 149.775 113.809 146.965C112.74 144.154 112.099 140.295 113.38 138.539C114.661 136.783 112.74 132.896 112.74 132.896Z" fill="#263238" stroke="#263238" stroke-linecap="round" stroke-linejoin="round"/>
<path d="M115.11 130.489C115.11 130.489 111.832 130.694 110.283 135.177C108.735 139.66 110.283 146.341 110.737 147.44C111.191 148.538 113.562 149.648 115.019 148.732C116.477 147.815 118.479 144.348 119.932 143.448C121.385 142.548 124.305 138.766 124.305 138.766L126.398 141.653C126.398 141.653 127.765 141.454 128.31 138.567C128.854 135.679 126.857 132.587 123.579 130.793C120.3 128.998 116.749 129.098 115.11 130.489Z" fill="#263238" stroke="#263238" stroke-linecap="round" stroke-linejoin="round"/>
<path d="M114.661 150.686C114.661 150.686 114.767 154.198 115.519 155.721C116.27 157.245 118.192 164.003 120.648 164.263C123.104 164.522 122.999 154.783 122.999 154.783C122.999 154.783 120.114 154.899 118.404 152.911C116.694 150.923 114.878 149.764 114.661 150.686Z" stroke="#263238" stroke-linecap="round" stroke-linejoin="round"/>
<path d="M124.668 135.872C124.668 135.872 120.845 140.759 117.839 142.851C114.833 144.944 113.471 145.242 113.471 145.242C113.471 145.242 114.651 145.043 113.834 145.943C113.017 146.843 112.825 147.048 112.377 146.241C111.928 145.435 110.102 144.646 109.734 146.639C109.577 147.471 109.694 148.337 110.063 149.084C110.432 149.831 111.03 150.412 111.751 150.725C112.528 151.083 113.391 151.153 114.207 150.923C114.207 150.923 114.48 154.314 118.121 156.307C121.763 158.3 125.137 155.512 126.136 153.419C127.135 151.327 126.776 141.858 126.59 140.262C126.403 138.666 124.668 135.872 124.668 135.872Z" fill="white" stroke="#263238" stroke-linecap="round" stroke-linejoin="round"/>
<path d="M123.75 145.303C123.75 145.303 123.533 147.174 123.856 147.29C124.179 147.406 125.369 147.876 124.925 148.582C124.481 149.289 123.856 149.753 123.109 149.4" stroke="#263238" stroke-linecap="round" stroke-linejoin="round"/>
<path d="M118.938 151.039C118.938 151.039 119.796 152.558 123.11 151.741" stroke="#263238" stroke-linecap="round" stroke-linejoin="round"/>
<path d="M120.865 146.065C120.865 146.617 120.623 147.059 120.33 147.059C120.038 147.059 119.796 146.611 119.796 146.065C119.796 145.518 120.033 145.071 120.33 145.071C120.628 145.071 120.865 145.513 120.865 146.065Z" fill="#263238"/>
<path d="M125.46 145.479C125.46 146.032 125.223 146.473 124.925 146.473C124.628 146.473 124.391 146.026 124.391 145.479C124.391 144.933 124.628 144.486 124.925 144.486C125.223 144.486 125.46 144.927 125.46 145.479Z" fill="#263238"/>
<path d="M118.742 144.243C119.033 143.85 119.413 143.547 119.843 143.364C120.274 143.18 120.741 143.121 121.198 143.194" stroke="#263238" stroke-linecap="round" stroke-linejoin="round"/>
<path d="M123.856 143.078C123.856 143.078 124.497 141.559 125.874 142.614" stroke="#263238" stroke-linecap="round" stroke-linejoin="round"/>
<path d="M159.424 184.178C159.424 184.178 149.105 187.806 146.311 188.921C143.516 190.036 134.337 190.174 133.701 191.29C133.066 192.405 128.496 198.71 127.603 202.332C126.711 205.954 127.896 215.765 128.748 216.378C132.173 218.857 141.181 218.095 144.994 217.935C151.97 217.654 158.723 220.409 162.647 212.635C163.918 210.123 162.082 201.327 161.83 198.401C161.578 195.475 160.68 190.594 160.554 189.893C160.428 189.191 161.336 184.736 159.424 184.178Z" fill="white" stroke="#263238" stroke-linecap="round" stroke-linejoin="round"/>
<path d="M146.517 198.351C151.975 196.242 156.63 190.069 158.078 189.031C159.525 187.993 160.317 185.719 160.317 185.719C158.031 187.405 155.549 188.749 152.938 189.716" stroke="#263238" stroke-linecap="round" stroke-linejoin="round"/>
<path d="M160.166 186.723C159.134 190.211 157.31 193.356 154.865 195.861" stroke="#263238" stroke-linecap="round" stroke-linejoin="round"/>
<path d="M135.759 191.643C135.759 191.643 137.363 192.521 142.82 192.521" stroke="#263238" stroke-linecap="round" stroke-linejoin="round"/>
<path d="M135.114 191.82C135.114 191.82 136.4 197.97 143.627 200.433" stroke="#263238" stroke-linecap="round" stroke-linejoin="round"/>
<path d="M133.833 193.934C134.929 196.05 136.402 197.903 138.165 199.384" stroke="#263238" stroke-linecap="round" stroke-linejoin="round"/>
<path d="M32.4636 164.544C32.4636 164.544 35.3133 173.439 35.3133 177.028C35.3133 180.617 37.593 200.278 37.8755 202.465C38.0647 203.822 38.4513 205.138 39.0204 206.363C40.9673 208.332 43.1786 209.963 45.5773 211.199C49.7081 213.408 49.5669 212.762 48.8557 213.695C48.1445 214.628 41.5826 214.799 38.5917 214.479C35.6008 214.159 32.6048 215.257 32.4636 213.855C32.3223 212.453 32.3173 206.832 32.3173 204.336C32.3173 201.841 26.3304 189.517 25.6192 185.608C24.9081 181.699 25.1905 175.626 25.1905 175.626L21.6296 166.239L32.4636 164.544Z" fill="white" stroke="#263238" stroke-linecap="round" stroke-linejoin="round"/>
<path d="M38.042 207.925V210.134L32.3527 208.935C32.3527 211.045 32.4031 213.104 32.4838 213.905C32.625 215.307 35.616 214.214 38.6119 214.528C41.6079 214.843 48.1597 214.683 48.8759 213.744C49.5921 212.806 49.7283 213.435 45.5975 211.249C43.2 210.011 40.989 208.38 39.0406 206.412C39.0406 206.412 38.042 206.517 38.042 207.925Z" fill="#263238" stroke="#263238" stroke-linecap="round" stroke-linejoin="round"/>
<path d="M20.7722 165.483C20.7722 165.483 21.1858 175.261 19.7635 179.214C12.6367 199.185 12.3542 206.677 12.3542 206.677C12.3542 206.677 19.4911 212.602 21.0597 213.259C22.6283 213.916 23.4807 214.192 22.482 214.97C21.4834 215.749 12.5055 215.594 10.9369 215.594C9.36834 215.594 5.51998 214.346 5.0963 213.568C4.67263 212.789 6.10505 206.545 6.10505 206.545C6.10505 206.545 6.82126 190.942 6.82126 187.353C6.82126 183.764 10.3821 176.746 10.3821 175.493C10.3821 174.24 9.67097 164.887 9.67097 164.887C9.67097 164.887 18.21 167.2 20.7722 165.483Z" fill="white" stroke="#263238" stroke-linecap="round" stroke-linejoin="round"/>
<path d="M22.4821 214.943C23.4908 214.164 22.6283 213.838 21.0597 213.231C19.4912 212.624 12.3644 206.677 12.3644 206.677C12.3644 206.677 11.6532 206.986 11.6532 208.234C11.6853 208.891 11.5359 209.543 11.2245 210.106C11.2245 210.106 8.94471 209.642 6.23623 209.002C6.00926 208.952 5.80247 208.902 5.60072 208.847C5.23253 210.708 4.84416 213.071 5.09635 213.529C5.52002 214.308 9.36838 215.556 10.937 215.556C12.5056 215.556 21.4885 215.727 22.4821 214.943Z" fill="#263238" stroke="#263238" stroke-linecap="round" stroke-linejoin="round"/>
<path d="M32.6049 118.514L37.8756 126.939L59.6846 123.51V128.032C59.6846 128.032 38.042 134.586 37.1644 133.807C36.2868 133.029 29.0389 129.28 29.0389 129.28L32.6049 118.514Z" fill="#B5B5B5" stroke="#263238" stroke-linecap="round" stroke-linejoin="round"/>
<path d="M13.0756 107.438C13.0756 107.438 11.507 117.426 11.507 121.478V135.834C11.507 135.834 6.96768 143.795 6.23634 150.813C5.505 157.831 5.37891 165.638 5.37891 165.638C5.37891 165.638 12.2232 168.917 17.7814 168.448C21.0887 168.172 24.3748 167.648 27.6167 166.88L35.4547 164.854L29.609 135.834C29.609 135.834 32.4637 127.552 32.8874 127.099C33.3111 126.646 34.9049 121.026 34.3148 116.796C33.7247 112.567 31.6063 103.849 27.188 101.508C22.7697 99.167 15.073 101.977 13.0756 107.438Z" fill="#5E5E5E" stroke="#263238" stroke-linecap="round" stroke-linejoin="round"/>
<path d="M19.5718 135.961C19.2628 138.506 18.285 140.898 16.7574 142.846C14.2356 146.032 12.1575 146.644 12.1575 146.644C12.1575 146.644 10.937 159.614 11.406 164.671" stroke="#263238" stroke-linecap="round" stroke-linejoin="round"/>
<path d="M20.8934 136.391C20.6402 138.784 19.936 141.093 18.8254 143.172C17.04 146.357 13.2773 147.489 13.2773 147.489" stroke="#263238" stroke-linecap="round" stroke-linejoin="round"/>
<path d="M29.7552 106.345C29.0087 103.556 26.8449 101.718 25.7857 100.961C22.4922 100.072 18.1546 101.331 15.3704 104.009C15.32 104.34 15.2847 104.639 15.2141 104.942C15.0729 105.566 12.9343 119.137 12.9343 119.137C12.9343 119.137 13.4387 119.248 14.2255 119.402C13.4387 123.792 14.3214 131.113 14.3214 131.113C14.3214 131.113 18.5329 132.598 21.7911 132.449C25.0494 132.3 28.8523 130.241 28.8523 130.241C28.8523 128.987 29.8056 122.699 30.2545 119.806H30.4663C30.4663 119.806 30.7488 110.088 29.7552 106.345Z" fill="white" stroke="#263238" stroke-linecap="round" stroke-linejoin="round"/>
<path d="M23.8288 118.331C23.8288 118.331 18.7851 123.853 16.2229 124.719L23.8288 118.331Z" fill="white"/>
<path d="M23.8288 118.331C23.8288 118.331 18.7851 123.853 16.2229 124.719" stroke="#263238" stroke-linecap="round" stroke-linejoin="round"/>
<path d="M23.8288 121.153C23.8288 121.153 20.9741 123.98 18.6691 126.061L23.8288 121.153Z" fill="white"/>
<path d="M23.8288 121.153C23.8288 121.153 20.9741 123.98 18.6691 126.061" stroke="#263238" stroke-linecap="round" stroke-linejoin="round"/>
<path d="M34.8141 161.673C32.2918 163.147 29.4771 163.919 26.618 163.921C26.618 163.921 22.341 165.952 15.6429 165.638C12.0695 165.425 8.59019 164.306 5.47978 162.369C5.40412 164.357 5.37891 165.638 5.37891 165.638C5.37891 165.638 12.2232 168.917 17.7814 168.448C21.0887 168.172 24.3748 167.648 27.6167 166.88L35.4547 164.854L34.8141 161.673Z" fill="white" stroke="#263238" stroke-linecap="round" stroke-linejoin="round"/>
<path d="M26.7592 167.2L27.0466 150.189" stroke="#263238" stroke-linecap="round" stroke-linejoin="round"/>
<path d="M40.8715 85.7503V89.8029C40.8715 89.8029 42.7226 91.3654 41.5827 92.4586C41.1245 92.9641 40.5948 93.3855 40.0141 93.7064C40.0141 93.7064 39.3029 97.2953 37.7343 99.0124C36.1657 100.73 35.3133 100.415 33.0336 98.6977C30.7538 96.9806 29.3264 95.8929 29.3264 95.8929C29.3264 95.8929 30.7487 88.2459 31.7474 85.7503C32.7461 83.2547 35.8833 82.9399 37.4519 83.2491C39.0205 83.5583 40.8715 85.7503 40.8715 85.7503Z" fill="white" stroke="#263238" stroke-linecap="round" stroke-linejoin="round"/>
<path d="M39.313 89.4992C39.313 89.9685 39.1214 90.3495 38.8894 90.3495C38.6574 90.3495 38.4657 89.9685 38.4657 89.4992C38.4657 89.0299 38.6523 88.6434 38.8894 88.6434C39.1264 88.6434 39.313 89.0299 39.313 89.4992Z" fill="#263238"/>
<path d="M37.9663 87.484C37.9663 87.484 38.7481 86.0926 39.8073 87.2521" stroke="#263238" stroke-linecap="round" stroke-linejoin="round"/>
<path d="M36.9072 93.999C37.3757 94.5208 38.0096 94.8252 38.6776 94.8493" stroke="#263238" stroke-linecap="round" stroke-linejoin="round"/>
<path d="M34.5114 84.4362C34.5114 84.4362 31.5155 92.2985 31.6668 96.0695C31.8181 99.8406 35.7018 110.657 34.0625 114.262C32.4233 117.868 28.9633 120.501 26.4415 116.228C23.9196 111.954 22.9966 110.657 21.3524 113.274C19.7081 115.891 17.7612 120.65 14.0188 120.65C10.2763 120.65 5.76218 115.245 8.00664 109.508C10.2511 103.772 15.3453 101.315 18.4875 95.7438C20.7946 91.7851 22.4187 87.3967 23.2791 82.7964L34.804 83.2878L34.5114 84.4362Z" fill="#263238" stroke="#263238" stroke-linecap="round" stroke-linejoin="round"/>
<path d="M22.9764 85.2534H40.9421C40.9421 85.2534 40.9421 76.8941 39.429 75.5856C37.9159 74.2771 26.1085 74.6028 24.7619 75.5856C23.4152 76.5684 22.4064 84.2706 22.9764 85.2534Z" fill="#489C17" stroke="#263238" stroke-linecap="round" stroke-linejoin="round"/>
<path d="M35.2024 85.165C35.2024 85.165 39.3937 86.9649 43.1362 86.9649C46.8786 86.9649 48.8255 85.165 48.8255 85.165H35.2024Z" fill="#489C17" stroke="#263238" stroke-linecap="round" stroke-linejoin="round"/>
<path d="M64.6729 122.71C64.6729 122.71 66.2415 122.401 66.2415 123.648C66.2415 124.896 64.3904 124.753 62.8218 124.118C61.2532 123.483 63.3918 123.041 64.6729 122.71Z" fill="#B5B5B5" stroke="#263238" stroke-linecap="round" stroke-linejoin="round"/>
<path d="M64.9603 124.289C64.9603 124.289 66.5289 123.974 66.5289 125.227C66.5289 126.481 64.6728 126.332 63.1093 125.691C61.5457 125.051 63.6792 124.603 64.9603 124.289Z" fill="#B5B5B5" stroke="#263238" stroke-linecap="round" stroke-linejoin="round"/>
<path d="M65.2478 125.851C65.2478 125.851 66.8114 125.537 66.8114 126.784C66.8114 128.032 64.9603 127.889 63.3917 127.254C61.8231 126.619 63.9617 126.16 65.2478 125.851Z" fill="#B5B5B5" stroke="#263238" stroke-linecap="round" stroke-linejoin="round"/>
<path d="M64.9654 127.447C64.9654 127.447 66.534 127.132 66.534 128.38C66.534 129.628 64.678 129.484 63.1144 128.849C61.5508 128.214 63.6843 127.756 64.9654 127.447Z" fill="#B5B5B5" stroke="#263238" stroke-linecap="round" stroke-linejoin="round"/>
<path d="M58.116 124.289C58.116 124.289 49.2794 145.507 49.2794 146.926C49.2794 148.345 49.2794 152.072 50.1369 154.258C50.9943 156.445 56.1238 160.497 58.4035 160.967C60.6833 161.436 70.3773 158.94 71.5172 158.626C72.6571 158.311 75.6531 149.576 75.5068 147.859C75.3605 146.142 71.6584 139.577 71.0885 138.501C70.5186 137.424 65.8178 130.384 65.2479 129.114C64.6779 127.844 62.9631 124.592 62.9631 124.592L58.116 124.289Z" fill="white" stroke="#263238" stroke-linecap="round" stroke-linejoin="round"/>
<path d="M59.6847 128.032L58.5448 137.242" stroke="#263238" stroke-linecap="round" stroke-linejoin="round"/>
<path d="M61.682 126.939V139.113" stroke="#263238" stroke-linecap="round" stroke-linejoin="round"/>
<path d="M63.1094 125.691L67.099 139.423" stroke="#263238" stroke-linecap="round" stroke-linejoin="round"/>
<path d="M35.0158 125.537C35.0158 125.537 28.0353 106.212 26.1792 105.251C24.3231 104.291 18.78 104.49 19.35 111.667C19.9199 118.845 30.8951 133.824 32.3174 133.979C33.7397 134.133 56.1238 126.023 56.1238 126.023C56.1238 126.023 63.6894 127.127 64.2493 126.177C64.8091 125.227 64.9604 121.81 64.9604 121.81C64.9604 121.81 65.9692 119.469 64.9604 118.69C63.9517 117.912 59.4123 118.376 58.6911 118.376C57.9698 118.376 54.5552 122.119 54.5552 122.119L35.0158 125.537Z" fill="white" stroke="#263238" stroke-linecap="round" stroke-linejoin="round"/>
<path d="M64.2694 126.16C64.8393 125.227 64.9805 121.793 64.9805 121.793C64.9805 121.793 65.9893 119.452 64.9805 118.674C63.9718 117.895 59.4324 118.359 58.7112 118.359C57.9899 118.359 54.5753 122.102 54.5753 122.102L50.8682 122.754L51.4986 127.673C54.2374 126.696 56.1439 126.017 56.1439 126.017C56.1439 126.017 63.6792 127.127 64.2694 126.16Z" fill="#489C17" stroke="#263238" stroke-linecap="round" stroke-linejoin="round"/>
<path d="M66.8114 116.487L74.9368 121.169L73.3682 124.289L66.8114 116.487Z" fill="white" stroke="#263238" stroke-linecap="round" stroke-linejoin="round"/>
<path d="M60.1134 118.05L61.2533 114.77C61.2533 114.77 62.1107 114.301 65.2479 115.239C68.3851 116.178 74.5082 125.691 74.5082 125.691C74.5082 125.691 70.0899 129.125 69.3787 129.28C68.6676 129.435 66.1003 120.998 65.8179 120.231C65.5918 119.675 65.3038 119.152 64.9604 118.674L60.1134 118.05Z" fill="white" stroke="#263238" stroke-linecap="round" stroke-linejoin="round"/>
<path d="M64.9603 118.674L62.4385 116.879" stroke="#263238" stroke-linecap="round" stroke-linejoin="round"/>
<path d="M81.7762 153.143H45.8245V214.816H81.7762V153.143Z" fill="#489C17" stroke="#263238" stroke-linecap="round" stroke-linejoin="round"/>
<path d="M81.6904 174.058H45.9102C45.6561 174.058 45.4123 173.947 45.2326 173.75C45.0529 173.554 44.9519 173.287 44.9519 173.008C44.9519 172.73 45.0529 172.463 45.2326 172.267C45.4123 172.07 45.6561 171.959 45.9102 171.959H81.6904C81.9446 171.959 82.1883 172.07 82.3681 172.267C82.5478 172.463 82.6487 172.73 82.6487 173.008C82.6487 173.287 82.5478 173.554 82.3681 173.75C82.1883 173.947 81.9446 174.058 81.6904 174.058Z" fill="#489C17" stroke="#263238" stroke-linecap="round" stroke-linejoin="round"/>
<path d="M81.6904 154.071H45.9102C45.6561 154.071 45.4123 153.96 45.2326 153.763C45.0529 153.567 44.9519 153.3 44.9519 153.021C44.9519 152.743 45.0529 152.476 45.2326 152.28C45.4123 152.083 45.6561 151.972 45.9102 151.972H81.6904C81.9446 151.972 82.1883 152.083 82.3681 152.28C82.5478 152.476 82.6487 152.743 82.6487 153.021C82.6487 153.3 82.5478 153.567 82.3681 153.763C82.1883 153.96 81.9446 154.071 81.6904 154.071Z" fill="#489C17" stroke="#263238" stroke-linecap="round" stroke-linejoin="round"/>
<path d="M81.6904 194.95H45.9102C45.6561 194.95 45.4123 194.84 45.2326 194.643C45.0529 194.446 44.9519 194.179 44.9519 193.901C44.9519 193.623 45.0529 193.356 45.2326 193.159C45.4123 192.963 45.6561 192.852 45.9102 192.852H81.6904C81.9446 192.852 82.1883 192.963 82.3681 193.159C82.5478 193.356 82.6487 193.623 82.6487 193.901C82.6487 194.179 82.5478 194.446 82.3681 194.643C82.1883 194.84 81.9446 194.95 81.6904 194.95Z" fill="#489C17" stroke="#263238" stroke-linecap="round" stroke-linejoin="round"/>
</svg>
