<svg width="34" height="37" viewBox="0 0 34 37" fill="none" xmlns="http://www.w3.org/2000/svg">
<path d="M17 36.0348C7.79525 36.0348 0.333328 28.1715 0.333328 18.4715C0.333328 8.77159 7.79525 0.908234 17 0.908234C26.2047 0.908234 33.6667 8.77159 33.6667 18.4715C33.6566 28.1671 26.2006 36.0242 17 36.0348ZM15.3333 27.2532V30.7658H18.6667V27.2532H15.3333ZM17 9.68988C18.8409 9.68988 20.3333 11.2626 20.3333 13.2025C20.3392 14.1347 19.9841 15.029 19.35 15.679L17.2833 17.8919C16.0357 19.2122 15.3347 20.9991 15.3333 22.8623V23.7405H18.6667C18.5371 21.8525 19.2598 20.0105 20.6167 18.7701L22.1167 17.1543C23.1135 16.1081 23.6716 14.6851 23.6667 13.2025C23.6667 9.32256 20.6819 6.17722 17 6.17722C13.3181 6.17722 10.3333 9.32256 10.3333 13.2025H13.6667C13.6667 11.2626 15.159 9.68988 17 9.68988Z" fill="#2E3A59"/>
</svg>
