<svg width="34" height="36" viewBox="0 0 34 36" fill="none" xmlns="http://www.w3.org/2000/svg">
<path d="M17 35.9082C7.79523 35.9082 0.333313 28.0449 0.333313 18.3449C0.333313 8.645 7.79523 0.781647 17 0.781647C26.2047 0.781647 33.6666 8.645 33.6666 18.3449C33.6565 28.0405 26.2005 35.8976 17 35.9082ZM15.3333 27.1266V30.6392H18.6666V27.1266H15.3333ZM17 9.56329C18.8409 9.56329 20.3333 11.136 20.3333 13.076C20.3392 14.0081 19.9841 14.9024 19.35 15.5524L17.2833 17.7654C16.0357 19.0856 15.3347 20.8725 15.3333 22.7358V23.6139H18.6666C18.5371 21.7259 19.2597 19.884 20.6166 18.6435L22.1166 17.0277C23.1134 15.9815 23.6716 14.5585 23.6667 13.076C23.6667 9.19598 20.6819 6.05063 17 6.05063C13.3181 6.05063 10.3333 9.19598 10.3333 13.076H13.6666C13.6666 11.136 15.159 9.56329 17 9.56329Z" fill="#489C17"/>
</svg>
